<svg xmlns="http://www.w3.org/2000/svg" viewBox="0 0 1200 630">
  <defs>
    <linearGradient id="sky" x1="0" y1="0" x2="0" y2="1">
      <stop offset="0%" stop-color="#fdf3e6" />
      <stop offset="55%" stop-color="#f6cfa5" />
      <stop offset="100%" stop-color="#e89a6f" />
    </linearGradient>
    <radialGradient id="sun" cx="50%" cy="50%" r="50%">
      <stop offset="0%" stop-color="#fff4dd" />
      <stop offset="60%" stop-color="#f7cf8f" />
      <stop offset="100%" stop-color="#f7cf8f" stop-opacity="0" />
    </radialGradient>
  </defs>

  <rect width="1200" height="630" fill="url(#sky)" />
  <circle cx="880" cy="250" r="200" fill="url(#sun)" />
  <circle cx="880" cy="250" r="80" fill="#fdeccb" />
  <rect x="0" y="360" width="1200" height="70" fill="#b9cfc7" />
  <path d="M0 400 C 250 370 420 430 640 405 C 900 376 1050 420 1200 400 L1200 630 L0 630 Z" fill="#d8a979" />
  <path d="M0 470 C 300 440 460 490 700 468 C 950 446 1100 480 1200 466 L1200 630 L0 630 Z" fill="#bf8451" />
  <path d="M0 540 C 250 516 470 560 720 542 C 980 522 1120 552 1200 540 L1200 630 L0 630 Z" fill="#7c5234" />

  <text x="90" y="250" font-family="Georgia, 'Times New Roman', serif" font-weight="700"
        font-size="78" fill="#2b211b">Driftwood</text>
  <text x="90" y="330" font-family="Georgia, 'Times New Roman', serif" font-weight="700"
        font-size="78" fill="#2b211b">Cowgirl Boutique</text>
  <text x="92" y="385" font-family="Arial, sans-serif" font-size="30" fill="#6f5f53">
    Western &amp; beachy · Bodega, California
  </text>
</svg>
